# xmcd CD database file
#
# Track frame offsets:
#	150
#	22665
#	44040
#	69383
#	83258
#	101329
#	121177
#	140583
#	150064
#	170401
#
# Disc length: 2402 seconds
#
# Revision: 0
# Processed by: cddbd v1.5.2PL0 Copyright (c) Steve Scherf et al.
# Submitted via: CDex 1.70beta2
#
DISCID=6809600a
DTITLE=Orgone (Mexico) - Taco Hell
DYEAR=2002
DGENRE=Thrash Metal
TTITLE0=Taco Hell
TTITLE1=Slaves Of The Flesh
TTITLE2=Designed By The Devil
TTITLE3=Super Soldier
TTITLE4=Death Day
TTITLE5=Metal Makes Me Stronger
TTITLE6=Atomic Christ 
TTITLE7=What You Cant See
TTITLE8=The Untouchable
TTITLE9=Unknown Track
EXTD=YEAR: 2002
EXTT0=
EXTT1=
EXTT2=
EXTT3=
EXTT4=
EXTT5=
EXTT6=
EXTT7=
EXTT8=
EXTT9=
PLAYORDER=
